HIERARCHY
ROOT hip
{
  OFFSET 0 0 0
  CHANNELS 6 Xposition Yposition Zposition Zrotation Yrotation Xrotation
  JOINT abdomen
  {
    OFFSET 0 20.6881 -0.73152
    CHANNELS 3 Zrotation Xrotation Yrotation
    JOINT chest
    {
      OFFSET 0 11.7043 -0.48768
      CHANNELS 3 Zrotation Xrotation Yrotation
      JOINT neck
      {
        OFFSET 0 22.1894 -2.19456
        CHANNELS 3 Zrotation Xrotation Yrotation
        JOINT head
        {
          OFFSET -0.24384 7.07133 1.2192
          CHANNELS 3 Zrotation Xrotation Yrotation
          JOINT leftEye
          {
            OFFSET 4.14528 8.04674 8.04672
            CHANNELS 3 Zrotation Xrotation Yrotation
            End Site
            {
              OFFSET 1 0 0
            }
          }
          JOINT rightEye
          {
            OFFSET -3.6576 8.04674 8.04672
            CHANNELS 3 Zrotation Xrotation Yrotation
            End Site
            {
              OFFSET 1 0 0
            }
          }
        }
      }
      JOINT rCollar
      {
        OFFSET -2.68224 19.2634 -4.8768
        CHANNELS 3 Zrotation Xrotation Yrotation
        JOINT rShldr
        {
          OFFSET -8.77824 -1.95073 1.46304
          CHANNELS 3 Zrotation Xrotation Yrotation
          JOINT rForeArm
          {
            OFFSET -28.1742 -1.7115 0.48768
            CHANNELS 3 Zrotation Xrotation Yrotation
            JOINT rHand
            {
              OFFSET -22.5879 0.773209 7.07136
              CHANNELS 3 Zrotation Xrotation Yrotation
              JOINT rThumb1
              {
                OFFSET -1.2192 -0.487915 3.41376
                CHANNELS 3 Zrotation Xrotation Yrotation
                JOINT rThumb2
                {
                  OFFSET -3.37035 -0.52449 3.41376
                  CHANNELS 3 Zrotation Xrotation Yrotation
                  End Site
                  {
                    OFFSET -1.78271 -1.18214 1.43049
                  }
                }
              }
              JOINT rIndex1
              {
                OFFSET -7.75947 0.938293 5.60832
                CHANNELS 3 Zrotation Xrotation Yrotation
                JOINT rIndex2
                {
                  OFFSET -2.54057 -0.884171 1.56538
                  CHANNELS 3 Zrotation Xrotation Yrotation
                  End Site
                  {
                    OFFSET -1.62519 -0.234802 1.16502
                  }
                }
              }
              JOINT rMid1
              {
                OFFSET -8.24714 1.18213 3.41376
                CHANNELS 3 Zrotation Xrotation Yrotation
                JOINT rMid2
                {
                  OFFSET -3.10165 -0.590103 1.0647
                  CHANNELS 3 Zrotation Xrotation Yrotation
                  End Site
                  {
                    OFFSET -2.48547 -0.328903 0.83742
                  }
                }
              }
              JOINT rRing1
              {
                OFFSET -8.82822 0.546677 1.51678
                CHANNELS 3 Zrotation Xrotation Yrotation
                JOINT rRing2
                {
                  OFFSET -2.60934 -0.819778 -0.0198488
                  CHANNELS 3 Zrotation Xrotation Yrotation
                  End Site
                  {
                    OFFSET -2.33842 -0.294052 0.168128
                  }
                }
              }
              JOINT rPinky1
              {
                OFFSET -8.27202 -0.0477905 -0.4584
                CHANNELS 3 Zrotation Xrotation Yrotation
                JOINT rPinky2
                {
                  OFFSET -1.82734 -0.647385 -0.700984
                  CHANNELS 3 Zrotation Xrotation Yrotation
                  End Site
                  {
                    OFFSET -1.69225 -0.51767 -0.607171
                  }
                }
              }
            }
          }
        }
      }
      JOINT lCollar
      {
        OFFSET 2.68224 19.2634 -4.8768
        CHANNELS 3 Zrotation Xrotation Yrotation
        JOINT lShldr
        {
          OFFSET 8.77824 -1.95073 1.46304
          CHANNELS 3 Zrotation Xrotation Yrotation
          JOINT lForeArm
          {
            OFFSET 28.1742 -1.7115 0.48768
            CHANNELS 3 Zrotation Xrotation Yrotation
            JOINT lHand
            {
              OFFSET 22.5879 0.773209 7.07136
              CHANNELS 3 Zrotation Xrotation Yrotation
              JOINT lThumb1
              {
                OFFSET 1.2192 -0.487915 3.41376
                CHANNELS 3 Zrotation Xrotation Yrotation
                JOINT lThumb2
                {
                  OFFSET 3.37035 -0.52449 3.41376
                  CHANNELS 3 Zrotation Xrotation Yrotation
                  End Site
                  {
                    OFFSET 1.78271 -1.18214 1.43049
                  }
                }
              }
              JOINT lIndex1
              {
                OFFSET 7.75947 0.938293 5.60832
                CHANNELS 3 Zrotation Xrotation Yrotation
                JOINT lIndex2
                {
                  OFFSET 2.54057 -0.884171 1.56538
                  CHANNELS 3 Zrotation Xrotation Yrotation
                  End Site
                  {
                    OFFSET 1.62519 -0.234802 1.16502
                  }
                }
              }
              JOINT lMid1
              {
                OFFSET 8.24714 1.18213 3.41376
                CHANNELS 3 Zrotation Xrotation Yrotation
                JOINT lMid2
                {
                  OFFSET 3.10165 -0.590103 1.0647
                  CHANNELS 3 Zrotation Xrotation Yrotation
                  End Site
                  {
                    OFFSET 2.48547 -0.328903 0.83742
                  }
                }
              }
              JOINT lRing1
              {
                OFFSET 8.82822 0.546677 1.51678
                CHANNELS 3 Zrotation Xrotation Yrotation
                JOINT lRing2
                {
                  OFFSET 2.60934 -0.819778 -0.0198488
                  CHANNELS 3 Zrotation Xrotation Yrotation
                  End Site
                  {
                    OFFSET 2.33842 -0.294052 0.168128
                  }
                }
              }
              JOINT lPinky1
              {
                OFFSET 8.27202 -0.0477905 -0.4584
                CHANNELS 3 Zrotation Xrotation Yrotation
                JOINT lPinky2
                {
                  OFFSET 1.82734 -0.647385 -0.700984
                  CHANNELS 3 Zrotation Xrotation Yrotation
                  End Site
                  {
                    OFFSET 1.69225 -0.51767 -0.607171
                  }
                }
              }
            }
          }
        }
      }
    }
  }
  JOINT rButtock
  {
    OFFSET -8.77824 4.35084 1.2192
    CHANNELS 3 Zrotation Xrotation Yrotation
    JOINT rThigh
    {
      OFFSET 0 -1.70687 -2.19456
      CHANNELS 3 Zrotation Xrotation Yrotation
      JOINT rShin
      {
        OFFSET 0 -36.8199 0.73152
        CHANNELS 3 Zrotation Xrotation Yrotation
        JOINT rFoot
        {
          OFFSET 0.73152 -45.1104 -5.12064
          CHANNELS 3 Zrotation Xrotation Yrotation
          End Site
          {
            OFFSET -1.1221 -3.69964 12.103
          }
        }
      }
    }
  }
  JOINT lButtock
  {
    OFFSET 8.77824 4.35084 1.2192
    CHANNELS 3 Zrotation Xrotation Yrotation
    JOINT lThigh
    {
      OFFSET 0 -1.70687 -2.19456
      CHANNELS 3 Zrotation Xrotation Yrotation
      JOINT lShin
      {
        OFFSET 0 -36.8199 0.73152
        CHANNELS 3 Zrotation Xrotation Yrotation
        JOINT lFoot
        {
          OFFSET -0.73152 -45.1104 -5.12064
          CHANNELS 3 Zrotation Xrotation Yrotation
          End Site
          {
            OFFSET 1.1221 -3.69964 12.103
          }
        }
      }
    }
  }
}
MOTION
Frames:	9
Frame Time:	0.03333
0.0 0.0 0.0 0.0 0.0 0.0 0.0 0.0 0.0 0.0 0.0 0.0 0.0 0.0 0.0 0.0 0.0 0.0 0.0 0.0 0.0 0.0 0.0 0.0 0.0 0.0 0.0 0.0 0.0 0.0 0.0 0.0 0.0 0.0 0.0 0.0 0.0 0.0 0.0 0.0 0.0 0.0 0.0 0.0 0.0 0.0 0.0 0.0 0.0 0.0 0.0 0.0 0.0 0.0 0.0 0.0 0.0 0.0 0.0 0.0 0.0 0.0 0.0 0.0 0.0 0.0 0.0 0.0 0.0 0.0 0.0 0.0 0.0 0.0 0.0 0.0 0.0 0.0 0.0 0.0 0.0 0.0 0.0 0.0 0.0 0.0 0.0 0.0 0.0 0.0 0.0 0.0 0.0 0.0 0.0 0.0 0.0 0.0 0.0 0.0 0.0 0.0 0.0 0.0 0.0 0.0 0.0 0.0 0.0 0.0 0.0 0.0 0.0 0.0 0.0 0.0 0.0 0.0 0.0 0.0 0.0 0.0 0.0 0.0 0.0 0.0 0.0 0.0 0.0 0.0 0.0 0.0
-1.8143 52.62559999999999 2.1676 174.857827 8.569226 -175.121517 -6.298617 10.557018 -59.875201 7.90695 -2.497436 63.253684 -7.642262 37.204419 -147.058532 32.353148 42.738785 91.330705 0.002711 -0.0 -0.000551 0.002113 -0.0 -0.004383 -82.877332 68.300568 86.000631 -34.764057 -13.820521 -2.802316 167.842948 -28.488318 -169.77324 -21.761637 65.860816 13.048935 -7.976361 7.639186 1.743102 -122.478234 -17.920178 107.985457 -123.869909 22.788269 104.455434 -169.684834 -23.076465 117.240235 -160.572034 -6.359572 143.198149 179.891938 -48.695362 140.890255 -69.296316 72.947107 87.016633 -80.966117 83.126075 89.896206 27.043357 80.188466 10.094295 20.922797 60.780936 7.695552 33.834785 -85.665835 55.252537 49.027777 -5.330518 44.968356 -90.901908 -32.036172 91.272694 64.526627 50.581304 -44.67382 89.135967 38.426938 -50.299247 -72.292033 -47.475878 -30.866676 166.407804 -43.367407 -122.147333 46.161332 55.067027 -34.10487 -0.541596 -1.589818 0.295477 -2.85544 1.092705 -0.123227 145.100873 -1.521665 178.649089 -11.33608 13.754912 7.379476 87.573867 -50.207752 85.930307 75.416315 -53.822488 76.073515 179.97339 75.748558 0.021894 150.889976 1.129752 86.137202 73.693638 13.128999 -161.206498 149.856386 -64.108933 -94.07456 179.98948 75.74968 0.007198 -139.74611 60.393998 -35.97479 -0.016293 59.497828 -33.301398 77.44351 40.277738 6.026625
-3.2998 52.46920000000001 3.3244000000000002 176.327222 8.739549 -175.91399 -5.996095 8.125741 -180.0 -3.835216 4.362473 -176.35776 -14.632523 27.956334 -74.927395 43.272811 -1.337576 33.698159 -0.005587 -0.0 0.000456 0.0001 -0.0 -0.00022 -33.838117 -85.665636 -55.255796 -121.399657 -8.706879 164.62897 -171.499152 -44.672245 -155.667182 -5.618965 37.364565 3.632601 -0.543845 0.536296 0.085438 -104.172345 9.156213 95.114204 37.214068 -57.918388 -0.644837 2.433442 20.577899 1.475513 -36.036828 51.722534 29.833432 -7.187597 26.20289 6.139895 -145.119965 0.267449 -179.213018 11.937349 52.756219 -2.71843 -77.070131 -51.583266 -75.530632 -8.650998 -24.508742 -11.525936 28.501063 57.372202 -30.87456 -73.037231 14.506522 -27.641978 -99.147518 33.476754 -80.84417 62.771116 49.964266 -42.91538 -81.97137 -50.09233 -32.72279 159.609307 -31.202223 -128.703601 1.396722 2.23194 -0.806553 65.883261 48.381333 -50.583525 160.672143 -6.667865 -143.24576 163.775368 -6.246847 -143.113143 0.000765 0.063889 -0.019321 -7.833329 23.994903 -3.535649 156.381284 53.734309 150.118026 -0.821341 -1.971022 2.331384 -0.0001 0.001921 -5e-05 -56.184727 -58.522035 -60.262547 -44.830578 65.321013 -42.951561 145.922487 -28.150872 -95.511389 179.995477 75.750575 0.003722 -145.416719 55.322728 140.025644 35.607903 -72.291866 107.686401 57.305884 -20.347025 140.746966
-5.3584 52.5552 4.6885 177.224543 9.502764 -177.177053 -2.555056 12.791557 -63.105709 7.709187 -1.583419 66.712332 -7.253088 19.152355 -10.442488 9.225367 -32.119442 -29.255095 0.00141 0.0 0.002512 -0.004569 0.0 -0.001153 3.268383 -26.755815 -5.242256 53.350051 -21.506044 52.069211 151.684401 -37.524865 104.50207 168.480744 -6.331911 148.524723 81.971405 -50.091912 32.723018 -32.569294 7.399323 -7.089257 88.792218 -75.49892 40.04898 -55.411486 53.625204 45.422469 89.035083 -81.393445 59.760005 -129.259081 51.995944 118.239766 -145.118446 0.226251 -179.200336 -156.885079 22.849719 178.151783 -26.566089 -38.860259 -25.606402 -148.907198 19.376653 -145.065471 -4.239568 -44.742796 8.647035 81.438452 -26.279589 98.728591 68.092993 27.340104 109.537141 173.287167 -41.879836 -154.548717 93.743704 37.964244 -53.54863 146.774157 -26.667374 -79.225561 4.706396 7.224216 -2.854187 175.91323 -31.261972 -107.396625 160.825705 -7.141586 -143.317489 42.496877 58.274168 -36.59622 69.296155 72.946806 -87.016846 -2.739876 -44.135499 11.513422 23.390547 -36.349469 22.493545 24.784236 -41.970646 26.235263 0.000811 0.001761 -0.001042 -53.120512 -60.303509 152.121581 -38.355105 -58.641857 -173.810969 21.064701 -18.181743 -49.750653 -0.02131 -0.001212 -0.015982 18.256764 -16.708695 144.873022 74.855657 -51.237495 145.886011 -126.599986 56.750082 -148.229677
-8.0305 53.0889 6.3083 177.553361 10.492694 -178.541294 -2.803989 10.754598 -142.422668 -0.224683 5.315373 145.538279 -12.957846 24.445926 -51.946394 36.352757 -15.400854 16.484515 -0.001373 0.0 -0.002688 -0.001373 0.0 -0.002688 -9.651521 34.836268 11.198826 169.206785 11.911013 139.887836 29.722014 -84.364517 -36.239793 154.657248 -37.457424 138.54428 -12.926604 12.051324 3.310804 -152.640959 -57.349606 110.017233 -138.494435 4.896325 114.864263 -169.422842 -26.651094 118.303855 -10.977555 25.78928 7.641743 173.371728 -58.976549 137.127074 0.004399 1.854346 0.582992 -155.560632 -1.070883 171.978302 -152.199464 37.330372 -147.582363 -26.022378 -40.241751 -26.84993 155.6139 -4.236316 -161.991339 -138.491648 14.263013 -139.104011 -120.410312 19.806564 -31.622158 62.525995 50.37294 -42.51779 2.607932 2.554766 -0.457561 16.283874 15.549979 -15.564499 166.864622 -44.037555 -122.052942 -174.954167 -53.743313 -108.485256 17.369805 35.632213 -12.954276 -3.215997 0.425915 -0.072359 -0.00371 1.771486 -0.555859 -6.772216 29.707192 -4.67702 124.851322 -29.037712 122.62047 161.195375 55.950546 147.261466 -0.01806 0.001012 -0.013545 -45.596852 -57.31816 -0.0 42.917814 52.512865 -129.441494 144.645601 -37.519836 -85.452348 -179.999467 75.751502 -0.000549 -150.654454 55.31592 -55.45259 -46.583798 72.544865 119.085373 142.040337 -54.461736 36.836958
-11.1246 54.339999999999996 8.2629 177.332645 11.939028 179.88987 -3.103907 11.65506 -145.674354 -1.970015 4.963572 148.032805 -13.962855 29.47834 -79.774704 44.252031 2.753051 40.914385 -0.000698 0.0 -0.003967 -0.000658 -0.0 0.000366 -0.175588 -74.02806 -19.157401 -123.475594 -11.058901 160.020001 111.114879 36.690684 -141.907713 -174.718155 42.725677 148.686317 -174.615194 -12.272133 89.846003 -19.963603 -41.470462 1.531515 -166.820942 -43.973736 122.062835 5.903239 15.231601 -6.341943 -173.036185 -44.087843 144.932273 -83.354653 64.010704 75.197283 -0.014119 -1.32339 -0.414339 10.415548 0.337685 -0.028801 -146.226807 15.469767 -142.748645 -155.768507 37.124862 -146.00436 14.147948 43.06147 -15.997077 104.021712 -36.737333 -164.691044 93.256342 29.461761 123.814115 -177.493407 -79.560924 -157.948028 78.030753 38.689136 -42.41262 48.454763 0.27925 -46.799484 150.88551 -16.291371 -120.978866 -8.609941 5.181069 9.061371 175.766946 -50.334454 -144.098169 -92.012136 -78.25312 -63.161889 -0.004862 1.771499 -0.555749 153.779955 18.069297 -169.274145 79.554677 -51.373175 77.988292 -3.259173 -0.427955 1.082545 -0.0 0.000808 0.00134 -36.410974 -55.116571 -31.586133 -21.019103 60.329367 -138.033313 -95.201606 40.354561 167.148806 -0.0 -0.00064 -0.001092 12.331224 -15.973936 -25.280727 -50.613576 65.041742 -1.064897 178.221401 -54.996264 -91.469849
-14.17 55.887100000000004 10.4663 176.296617 14.717148 178.227764 -3.60958 14.526467 -97.529655 3.120201 4.974376 99.089658 -10.921986 22.316794 -37.774497 30.238933 -22.444258 8.246486 0.000103 0.0 0.001266 0.000103 0.0 0.001266 3.2684 -26.755787 -5.242582 -113.404526 17.696585 126.582485 86.397822 41.417914 -125.355143 179.633347 26.2772 149.643168 -176.928054 -14.532358 89.658141 -127.509025 15.150217 62.708424 -138.492549 4.896815 114.866072 -172.471441 -32.007074 117.512844 -0.571432 1.648209 0.323004 -17.939652 42.275109 14.396965 -145.120085 0.268407 -179.211169 -150.355114 -35.13197 -173.018196 -144.262105 9.23791 -141.008546 -148.100851 13.462144 -142.101095 0.273535 1.606641 -0.362174 -77.206263 17.745893 25.485334 114.184578 -30.593586 -71.153338 173.944697 -35.752721 -151.589514 -1.870146 -1.856264 0.257239 149.475706 -60.843374 -121.896277 -88.792525 -75.498664 -40.051103 84.123199 52.507019 -70.57786 82.841676 61.111667 -74.531681 -29.823097 -60.119573 -6.716325 74.841206 72.961243 -92.827886 73.498924 -82.414035 90.592163 -4.441481 12.865145 -4.01933 154.078967 35.081222 148.092231 -179.998032 75.749621 -0.001346 162.164915 19.845031 -0.0 -16.796353 36.307385 48.420753 -82.535427 12.68658 39.146737 0.003234 -0.000209 0.004851 6.368331 -16.469029 -180.0 -71.216451 -72.92034 -110.721623 28.373524 77.831934 -138.668568
-17.5126 56.821600000000004 13.409199999999998 175.597936 18.770513 177.872512 -6.629439 17.078764 -31.795756 8.422462 -2.143819 34.034562 8.042054 24.358954 76.561493 -39.310579 1.40298 -109.903141 -0.001871 0.0 -0.004884 -0.00151 -0.0 0.003171 0.163066 -0.99007 -0.218348 -113.877165 24.057856 111.451753 177.889929 -15.4832 -142.701535 -10.943376 44.018507 4.172976 -0.543078 0.536621 0.085363 9.253446 -12.815598 -6.874375 -158.400475 -30.155861 122.606205 -90.536073 55.816631 72.964141 -156.68616 5.002075 141.074981 -176.761856 -42.239358 142.39226 -77.74102 72.903252 95.87004 -158.43923 -29.976258 -179.386054 4.279995 12.353439 3.876914 2.653178 1.15419 0.331293 151.972731 14.764136 -157.371394 -128.591062 -2.674603 -128.942499 119.659177 -34.93122 -74.416706 172.871068 -28.771698 -149.951008 0.491197 0.484805 -0.077967 150.704554 -61.303375 -119.812585 152.106115 -18.556145 -121.368171 -145.276083 -67.189737 -87.023391 152.826765 14.793399 -138.515031 -2.924388 1.090067 -0.489805 145.102592 -1.439537 178.67685 154.276965 71.875584 -169.589504 123.036536 -31.10169 120.852392 -16.646785 41.516766 -6.370676 -0.00315 0.000799 -0.000788 -22.103362 -52.850344 -180.0 -2.892299 -37.59433 -95.56722 -7.028736 -50.011583 -110.414059 -0.000399 -0.000455 0.000512 2.445699 -16.032936 -171.209117 -58.627915 -59.325077 -178.452877 -106.933353 15.916079 3.085754
-21.2028 57.2943 16.9012 176.334883 23.488521 179.255429 -5.26767 14.826385 -98.141296 4.351909 5.086753 99.901569 7.528752 22.81897 75.075917 -38.383574 -0.685545 -104.973008 0.000745 -0.0 -0.00493 0.001206 0.0 0.003112 -8.482671 32.160904 9.930023 83.032274 -45.057455 97.003711 98.979569 -27.829151 64.109013 -173.694086 40.838803 146.566848 4.530795 -4.514141 -0.520595 -142.673331 -50.109242 123.201512 131.505868 -75.332433 78.378666 12.495876 7.086502 -5.857445 -0.217986 0.638684 0.123214 -42.06816 58.559352 36.100336 0.002065 0.022859 0.005666 -156.343505 -46.647005 177.60799 1.297678 3.491437 1.194511 -127.37825 -31.019995 -125.722534 157.323433 -17.488899 -164.608993 65.329894 14.835561 -18.652646 94.401169 26.224978 111.559479 -168.851435 -78.839813 -148.606377 -2.013308 -1.996324 0.274711 1.847821 1.766397 -0.19389 173.383956 -52.451604 -119.983584 83.73024 55.805441 -68.684354 -23.906707 -61.333313 -1.400865 27.970549 51.002727 -23.036958 145.09862 -1.522785 178.651387 -11.940658 26.395406 5.988851 149.120232 25.572708 145.198967 128.297826 -27.912948 125.444437 0.001037 0.000706 0.001037 -19.672707 -56.717271 156.845405 18.169039 -40.251718 10.453544 78.512755 23.986588 -167.608334 -0.0 0.000706 0.00023 0.421455 -18.988706 -178.704934 -51.655788 -69.210378 -141.217495 -97.54493 41.345645 -2.661424
